# xmcd
#
# Track frame offsets:
#	150
#	20700
#	43051
#	63227
#	78852
#	98503
#	117253
#	138254
#	153405
#	167880
#	185131
#	203957
#	219257
#	237558
#	257958
#	274982
#	311135
#	327336
#
# Disc length: 4613 seconds
#
# Revision: 0
# Processed by: cddbd v1.5.1PL2 Copyright (c) Steve Scherf et al.
# Submitted via: audiograbber 1.83.01
#
DISCID=0b120312
DTITLE=Verschiedene Interpreten - Kuschel Rock 7
DYEAR=1900
DGENRE=
TTITLE0=Scorpions - Send me an Angel
TTITLE1=Roxette - Queen of Rain
TTITLE2=Curtis Stigers - I wonder why
TTITLE3=Joe Cocker - Night calls
TTITLE4=Mariah Carey - I'll be there
TTITLE5=Paul McCartney and Wings - My Lo
TTITLE6=David Crosby and Phil Collins - - David Crosby and Phil Collins -
TTITLE7=Mathou - You never walk alone
TTITLE8=Kylie Minouge and Keizh Washingt - Kylie Minouge and Keizh Washingt
TTITLE9=Amy Grant - That's what Love i
TTITLE10=Jon Secada - Angel
TTITLE11=Toto - I'll be over You
TTITLE12=Ait Supply - All out of Love
TTITLE13=Bonnie Tyler - God gave Love t
TTITLE14=Mr. Big - Just take my Heart
TTITLE15=Led Zeppelin - Stairway to Hea
TTITLE16=Queen - Love of my Life
TTITLE17=4 Non Blondes - What's up
EXTD=
EXTT0=
EXTT1=
EXTT2=
EXTT3=
EXTT4=
EXTT5=
EXTT6=
EXTT7=
EXTT8=
EXTT9=
EXTT10=
EXTT11=
EXTT12=
EXTT13=
EXTT14=
EXTT15=
EXTT16=
EXTT17=
PLAYORDER=
